<svg width="1099" height="1311" viewBox="0 0 1099 1311" fill="none" xmlns="http://www.w3.org/2000/svg">
<g filter="url(#filter0_d_1670_37331)">
<path fill-rule="evenodd" clip-rule="evenodd" d="M556.443 483.412L593.758 564.723C570.769 569.5 546.983 570.552 523.3 567.655C521.563 567.442 519.831 567.209 518.104 566.955L556.443 483.412ZM556.443 266.304C585.576 260.236 617.993 276.12 630.471 303.311L888.979 866.614C893.347 876.132 888.731 886.203 878.669 889.108L785.865 915.897C770.772 920.254 753.225 912.212 746.673 897.934L642.881 671.764C599.947 684.373 554.585 688.25 509.468 682.731C495.596 681.034 481.912 678.468 468.488 675.072L366.213 897.934C359.661 912.212 342.114 920.254 327.021 915.897L234.218 889.108C224.156 886.203 219.54 876.132 223.908 866.614L341.072 611.306C326.24 599.322 312.364 586.011 299.628 571.471C245.54 509.72 215.784 430.096 216.001 347.689C216.218 265.282 246.392 185.818 300.805 124.358C355.218 62.8972 430.088 23.7107 511.227 14.2247C592.366 4.73865 858.778 52.785 942.049 74.767C1011.92 93.2122 973.702 193.334 950.296 254.651C947.19 262.786 944.346 270.238 942.049 276.725C916.815 347.997 859.409 492.412 799.822 558.769L784.911 530.001L766.559 494.932L736.737 432.256C765.698 407.583 774.821 350.108 762.436 297.545C750.051 244.983 718.983 198.83 675.121 167.834C631.258 136.839 577.649 123.154 524.453 129.373C471.258 135.592 422.171 161.283 386.498 201.578C350.824 241.872 331.041 293.97 330.899 347.997C330.757 402.024 350.265 454.227 385.726 494.712C387.65 496.908 389.613 499.061 391.614 501.171L482.415 303.311C494.894 276.12 527.311 260.236 556.443 266.304Z" fill="white"/>
</g>
<path d="M350.184 986C350.184 1013.67 347.017 1038.83 340.684 1061.5C334.684 1083.83 325.017 1103.17 311.684 1119.5C298.684 1135.83 281.85 1148.33 261.184 1157C240.85 1165.67 216.184 1170 187.184 1170C158.85 1170 134.35 1165.67 113.684 1157C93.3503 1148 76.5169 1135.5 63.1836 1119.5C50.1836 1103.17 40.3503 1083.67 33.6836 1061C27.3503 1038.33 24.1836 1013.17 24.1836 985.5C24.1836 948.5 29.8503 916.333 41.1836 889C52.8503 861.667 70.6836 840.5 94.6836 825.5C119.017 810.167 150.017 802.5 187.684 802.5C226.017 802.5 257.017 810.167 280.684 825.5C304.684 840.5 322.184 861.833 333.184 889.5C344.517 916.833 350.184 949 350.184 986ZM119.184 986C119.184 1009.33 121.517 1029.5 126.184 1046.5C130.85 1063.17 138.184 1076 148.184 1085C158.184 1094 171.184 1098.5 187.184 1098.5C203.85 1098.5 217.017 1094 226.684 1085C236.684 1076 243.85 1063.17 248.184 1046.5C252.85 1029.5 255.184 1009.33 255.184 986C255.184 950.667 250.017 923 239.684 903C229.35 883 212.017 873 187.684 873C171.35 873 158.017 877.667 147.684 887C137.684 896 130.35 909 125.684 926C121.35 942.667 119.184 962.667 119.184 986ZM607.418 1165L590.918 1088.5H481.918L464.918 1165H365.418L474.918 806.5H595.418L706.418 1165H607.418ZM553.418 945.5C551.751 938.167 549.751 930.167 547.418 921.5C545.418 912.5 543.418 903.333 541.418 894C539.418 884.333 537.585 875 535.918 866C534.585 875 532.918 884.333 530.918 894C528.918 903.333 526.918 912.5 524.918 921.5C523.251 930.167 521.418 938.167 519.418 945.5L500.418 1017.5H572.418L553.418 945.5ZM1062.24 1165H943.738L820.738 903.5H818.738C818.738 908.167 818.905 914.167 819.238 921.5C819.572 928.5 820.072 936.5 820.738 945.5C821.405 954.167 821.905 963.333 822.238 973C822.572 982.333 822.905 991.333 823.238 1000V1165H742.738V808H860.738L983.238 1066.5H984.738C984.738 1062.17 984.572 1056.5 984.238 1049.5C983.905 1042.17 983.405 1034.33 982.738 1026C982.405 1017.33 982.072 1008.5 981.738 999.5C981.405 990.5 981.238 981.833 981.238 973.5V808H1062.24V1165Z" fill="white"/>
<defs>
<filter id="filter0_d_1670_37331" x="196.837" y="0.224998" width="829.875" height="967.956" filterUnits="userSpaceOnUse" color-interpolation-filters="sRGB">
<feFlood flood-opacity="0" result="BackgroundImageFix"/>
<feColorMatrix in="SourceAlpha" type="matrix" values="0 0 0 0 0 0 0 0 0 0 0 0 0 0 0 0 0 0 127 0" result="hardAlpha"/>
<feOffset dx="12.775" dy="19.1625"/>
<feGaussianBlur stdDeviation="15.9688"/>
<feComposite in2="hardAlpha" operator="out"/>
<feColorMatrix type="matrix" values="0 0 0 0 1 0 0 0 0 1 0 0 0 0 1 0 0 0 0.25 0"/>
<feBlend mode="normal" in2="BackgroundImageFix" result="effect1_dropShadow_1670_37331"/>
<feBlend mode="normal" in="SourceGraphic" in2="effect1_dropShadow_1670_37331" result="shape"/>
</filter>
</defs>
</svg>
